<?xml version="1.0" standalone="no"?>
<!DOCTYPE svg PUBLIC "-//W3C//DTD SVG 20010904//EN"
 "http://www.w3.org/TR/2001/REC-SVG-20010904/DTD/svg10.dtd">
<svg version="1.0" xmlns="http://www.w3.org/2000/svg"
 width="260.000000pt" height="260.000000pt" viewBox="0 0 260.000000 260.000000"
 preserveAspectRatio="xMidYMid meet">
<metadata>
Created by potrace 1.11, written by Peter Selinger 2001-2013
</metadata>
<g transform="translate(0.000000,260.000000) scale(0.100000,-0.100000)"
fill="#000000" stroke="none">
<path d="M1872 2568 c-23 -18 -42 -36 -42 -40 0 -4 -59 -59 -132 -122 -89 -78
-137 -114 -149 -111 -62 20 -172 36 -280 42 -200 10 -382 -25 -548 -103 -252
-119 -414 -310 -487 -574 -14 -50 -18 -103 -19 -225 0 -154 1 -163 31 -247 36
-101 104 -215 175 -292 48 -52 49 -56 49 -115 l0 -61 -41 0 c-49 0 -81 29
-118 108 l-24 52 -62 0 c-41 0 -67 -5 -74 -14 -9 -10 -5 -72 14 -252 15 -132
30 -249 35 -261 9 -22 14 -23 140 -23 l130 0 0 -153 c0 -106 4 -157 12 -165
17 -17 1949 -17 1966 0 17 17 17 1949 0 1966 -9 9 -71 12 -219 12 -128 0 -210
4 -214 10 -4 6 44 10 138 10 l143 0 28 29 c25 26 35 51 63 168 3 13 -3 29 -16
42 -20 20 -32 21 -193 21 l-173 0 3 144 c3 135 2 146 -17 165 -30 30 -71 26
-119 -11z m100 -25 c7 -31 -7 -179 -15 -165 -10 15 -203 17 -212 2 -3 -5 -15
-15 -26 -21 -11 -6 28 37 88 95 81 79 115 105 134 106 17 0 28 -6 31 -17z
m-725 -250 c-20 -2 -52 -2 -70 0 -17 2 0 4 38 4 39 0 53 -2 32 -4z m-134 -10
c-13 -2 -35 -2 -50 0 -16 2 -5 4 22 4 28 0 40 -2 28 -4z m313 -4 c86 -16 91
-21 44 -48 -22 -12 -40 -20 -40 -17 0 3 15 13 33 22 l32 17 -32 9 c-18 5 -65
12 -105 17 -51 6 -61 9 -32 10 22 0 67 -4 100 -10z m-456 -15 c-211 -46 -370
-131 -497 -268 -34 -36 -74 -86 -88 -111 -29 -49 -45 -62 -21 -17 61 114 206
247 351 319 91 46 238 91 295 91 14 0 -4 -6 -40 -14z m430 -74 c-14 -11 -29
-20 -35 -20 -5 0 4 9 20 20 38 25 48 25 15 0z m-200 0 c-169 -10 -247 -45
-346 -152 -31 -35 -48 -49 -37 -33 30 43 113 120 154 141 75 39 141 53 244 52
l100 -1 -115 -7z m147 -6 c-3 -3 -12 -4 -19 -1 -8 3 -5 6 6 6 11 1 17 -2 13
-5z m-46 -40 c36 -6 36 -6 32 -49 -4 -35 -1 -46 18 -64 19 -18 35 -21 101 -21
45 0 78 -4 78 -10 0 -6 -117 -10 -332 -10 l-331 0 19 22 c94 109 251 159 415
132z m-528 -229 c-15 -30 -29 -53 -31 -51 -4 5 46 106 53 106 3 0 -7 -25 -22
-55z m1260 -7 l19 -33 -21 25 c-12 14 -27 34 -33 45 -9 17 -9 18 3 8 8 -6 22
-26 32 -45z m-546 35 c10 -4 13 -75 13 -382 l0 -376 25 -54 c14 -30 39 -69 55
-88 17 -18 30 -40 30 -49 0 -47 -122 -319 -240 -534 -36 -66 -37 -86 -7 -131
40 -59 37 -59 450 -59 413 0 423 1 445 57 13 32 72 432 72 485 0 46 -35 79
-92 85 -68 8 -112 -16 -142 -75 -33 -66 -68 -92 -121 -92 -23 0 -45 3 -48 6
-4 4 35 50 85 103 75 79 100 100 147 117 94 35 158 72 196 111 35 36 37 41 33
89 -6 67 -36 110 -90 124 l-40 11 6 68 c14 144 -27 340 -101 483 -25 49 -44
91 -42 93 2 2 70 6 152 10 l147 8 0 -957 0 -956 -957 0 -958 0 3 115 3 115
250 0 c270 0 289 3 323 54 28 44 20 91 -33 185 -234 415 -312 717 -271 1051
19 149 55 266 111 357 l21 34 281 -1 c154 -1 286 -4 294 -7z m593 -114 c12
-23 20 -43 18 -45 -3 -2 -14 17 -26 41 -27 56 -20 60 8 4z m-1759 -66 c-12
-20 -14 -14 -5 12 4 9 9 14 11 11 3 -2 0 -13 -6 -23z m376 -75 c-3 -8 -6 -5
-6 6 -1 11 2 17 5 13 3 -3 4 -12 1 -19z m1440 -20 c-3 -8 -6 -5 -6 6 -1 11 2
17 5 13 3 -3 4 -12 1 -19z m-1450 -40 c-3 -7 -5 -2 -5 12 0 14 2 19 5 13 2 -7
2 -19 0 -25z m1460 0 c-3 -8 -6 -5 -6 6 -1 11 2 17 5 13 3 -3 4 -12 1 -19z
m-1870 -10 c-3 -8 -6 -5 -6 6 -1 11 2 17 5 13 3 -3 4 -12 1 -19z m1880 -50
c-3 -7 -5 -2 -5 12 0 14 2 19 5 13 2 -7 2 -19 0 -25z m-1890 -10 c-3 -7 -5 -2
-5 12 0 14 2 19 5 13 2 -7 2 -19 0 -25z m410 -30 c-2 -13 -4 -5 -4 17 -1 22 1
32 4 23 2 -10 2 -28 0 -40z m1490 -120 c-2 -24 -4 -7 -4 37 0 44 2 63 4 43 2
-21 2 -57 0 -80z m-1910 -20 c-2 -24 -4 -5 -4 42 0 47 2 66 4 43 2 -24 2 -62
0 -85z m1750 -10 c-3 -7 -5 -2 -5 12 0 14 2 19 5 13 2 -7 2 -19 0 -25z m150
-70 c-3 -8 -6 -5 -6 6 -1 11 2 17 5 13 3 -3 4 -12 1 -19z m-85 -51 c8 -3 9 -6
1 -6 -13 -1 -53 46 -53 63 0 6 9 -3 19 -20 11 -18 25 -34 33 -37z m-1805 31
c-3 -8 -6 -5 -6 6 -1 11 2 17 5 13 3 -3 4 -12 1 -19z m410 -15 c-3 -10 -5 -4
-5 12 0 17 2 24 5 18 2 -7 2 -21 0 -30z m1440 -29 c-3 -3 -12 -4 -19 -1 -8 3
-5 6 6 6 11 1 17 -2 13 -5z m-1430 -46 c-3 -8 -6 -5 -6 6 -1 11 2 17 5 13 3
-3 4 -12 1 -19z"/>
</g>
</svg>
