<?xml version="1.0" encoding="utf-8"?>
<svg viewBox="0 0 56.279 56.078" xmlns="http://www.w3.org/2000/svg">
  <path d="M 49.972 32.572 C 49.296 35.818 43.915 39.37 37.736 40.057 C 34.514 40.415 31.341 40.746 27.96 40.601 C 22.426 40.363 18.062 39.37 18.062 39.37 C 18.062 39.871 18.093 40.347 18.162 40.799 C 18.879 45.889 23.575 46.193 28.023 46.336 C 32.511 46.479 36.507 45.306 36.507 45.306 L 36.691 49.088 C 36.691 49.088 33.552 50.661 27.96 50.951 C 24.876 51.11 21.045 50.88 16.586 49.776 C 6.912 47.389 5.25 37.771 4.994 28.014 C 4.918 25.117 4.967 22.383 4.967 20.1 C 4.967 10.121 11.973 7.193 11.973 7.193 C 15.509 5.681 21.575 5.045 27.879 4.996 L 28.033 4.996 C 34.338 5.045 40.406 5.681 43.941 7.193 C 43.941 7.193 50.95 10.121 50.95 20.1 C 50.95 20.1 51.037 27.462 49.972 32.572 Z M 40.653 14.991 C 39.257 13.536 37.428 12.793 35.158 12.793 C 32.532 12.793 30.546 13.734 29.229 15.617 L 27.951 17.617 L 26.674 15.617 C 25.357 13.734 23.37 12.793 20.744 12.793 C 18.472 12.793 16.646 13.536 15.247 14.991 C 13.895 16.439 13.22 18.405 13.22 20.873 L 13.22 32.955 L 18.353 32.955 L 18.353 21.227 C 18.353 18.756 19.467 17.499 21.698 17.499 C 24.163 17.499 25.401 18.99 25.401 21.934 L 25.401 28.351 L 30.502 28.351 L 30.502 21.934 C 30.502 18.99 31.737 17.499 34.204 17.499 C 36.434 17.499 37.549 18.756 37.549 21.227 L 37.549 32.955 L 42.682 32.955 L 42.682 20.873 C 42.682 18.405 42.009 16.439 40.653 14.991 Z" style=""/>
</svg>