<?xml version="1.0" encoding="utf-8"?>
<svg version="1.1" id="Layer_1" xmlns="http://www.w3.org/2000/svg" xmlns:xlink="http://www.w3.org/1999/xlink" x="0px" y="0px" viewBox="331.2 130.8 300 300.2" style="enable-background:new 331.2 130.8 300 300.2;" xml:space="preserve"><g><g><path d="M481.3,161.7c65.5,0,118.2,52.9,119,118c0.8,66.1-53.6,120.8-118.9,120.5C415.1,399.9,362,347.5,362,281.8 C362.1,214.6,414.5,161.7,481.3,161.7z M577.6,281.2c0.1-53-43.2-97-95.6-97.1c-53.8-0.1-97.1,42.7-97.2,96.2 c-0.1,53.9,42.8,97.3,96.2,97.3C534.2,377.7,577.5,334.6,577.6,281.2z"/><path d="M443.5,259.1c7.7,0,15.3,0.1,23,0c4-0.1,6,1.5,5.6,5.6c-0.1,1.2-0.1,2.3,0,3.5c0.4,4.3-1.6,5.9-5.9,5.9 c-12.3-0.1-24.6-0.1-37,0c-5.9,0-7,1.4-7,8.1s1.2,8.1,7.1,8.1c8.7,0,17.3,0,26,0c11.3,0.1,16.7,5.6,16.8,16.9c0,4.5,0,9,0,13.5 c0,10.1-5,15.9-14.9,16.2c-15.3,0.4-30.6,0.1-45.9,0.1c-3.3,0-4.9-1.7-5-4.9c-0.1-1.5,0-3,0-4.5c-0.2-4,1.7-5.7,5.7-5.7 c11.8,0.1,23.6,0,35.5,0c8,0,12.1-6.9,8-13.8c-1-1.6-3.8-2.6-5.8-2.7c-8.5-0.3-17-0.1-25.5-0.1c-13-0.1-17.8-5-17.8-17.9 c0-5.8,0-11.7,0.9-17.4c1.1-6.8,6-10.6,12.9-10.8c7.8-0.2,15.6-0.1,23.5-0.1C443.5,259.2,443.5,259.1,443.5,259.1z"/><path d="M505.8,326.1c0-18.1,0-34.8,0-52.1c-4.4,0-8-0.1-11.6,0s-5.2-1.6-5.1-5.1c0-1.3,0.1-2.7,0-4c-0.4-4.3,1.5-5.9,5.8-5.9 c10.9,0,10.9-0.1,10.9-11.1c0-14.4,6.2-20.6,20.5-20.7c7.5,0,15-0.1,22.5,0c5,0.1,6.1,1.5,6.1,7.4c0,6.7-0.8,7.8-6,7.9 c-4.5,0.1-9,0-13.5,0c-4.3,0-8.6,0-13.6,0c0,4.8-0.3,9.3,0.2,13.6c0.1,1.1,2.6,2.7,4,2.7c7.6,0.3,15.3,0.3,23,0.1 c5.7-0.2,6,3.2,5.9,7.4c-0.1,6.4-0.7,7.4-5.9,7.5c-8.8,0.1-17.6,0-27.2,0c0,4.3,0,8.4,0,12.5c0,7.7-0.3,15.3,0.1,23 c0.3,6-1.9,9.9-7.3,12.2C512.1,322.8,509.6,324.2,505.8,326.1z"/></g></g></svg>
