<?xml version="1.0" encoding="UTF-8" standalone="no"?>
<!-- Generator: Adobe Illustrator 18.0.0, SVG Export Plug-In . SVG Version: 6.00 Build 0)  -->

<svg
   xmlns:dc="http://purl.org/dc/elements/1.1/"
   xmlns:cc="http://creativecommons.org/ns#"
   xmlns:rdf="http://www.w3.org/1999/02/22-rdf-syntax-ns#"
   xmlns:svg="http://www.w3.org/2000/svg"
   xmlns="http://www.w3.org/2000/svg"
   xmlns:sodipodi="http://sodipodi.sourceforge.net/DTD/sodipodi-0.dtd"
   xmlns:inkscape="http://www.inkscape.org/namespaces/inkscape"
   version="1.1"
   id="Capa_1"
   x="0px"
   y="0px"
   viewBox="0 0 56.060419 56.060415"
   xml:space="preserve"
   sodipodi:docname="telegram.svg"
   inkscape:version="0.92.3 (2405546, 2018-03-11)"
   width="56.060421"
   height="56.060417"><metadata
   id="metadata41"><rdf:RDF><cc:Work
       rdf:about=""><dc:format>image/svg+xml</dc:format><dc:type
         rdf:resource="http://purl.org/dc/dcmitype/StillImage" /><dc:title /></cc:Work></rdf:RDF></metadata><defs
   id="defs39" /><sodipodi:namedview
   pagecolor="#ffffff"
   bordercolor="#666666"
   borderopacity="1"
   objecttolerance="10"
   gridtolerance="10"
   guidetolerance="10"
   inkscape:pageopacity="0"
   inkscape:pageshadow="2"
   inkscape:window-width="1920"
   inkscape:window-height="1001"
   id="namedview37"
   showgrid="false"
   inkscape:zoom="7.0459514"
   inkscape:cx="15.194698"
   inkscape:cy="3.7755232"
   inkscape:window-x="-9"
   inkscape:window-y="-9"
   inkscape:window-maximized="1"
   inkscape:current-layer="Capa_1" />

<g
   id="g6"
   transform="translate(-97.262348,-62.776953)">
</g>
<g
   id="g8"
   transform="translate(-97.262348,-62.776953)">
</g>
<g
   id="g10"
   transform="translate(-97.262348,-62.776953)">
</g>
<g
   id="g12"
   transform="translate(-97.262348,-62.776953)">
</g>
<g
   id="g14"
   transform="translate(-97.262348,-62.776953)">
</g>
<g
   id="g16"
   transform="translate(-97.262348,-62.776953)">
</g>
<g
   id="g18"
   transform="translate(-97.262348,-62.776953)">
</g>
<g
   id="g20"
   transform="translate(-97.262348,-62.776953)">
</g>
<g
   id="g22"
   transform="translate(-97.262348,-62.776953)">
</g>
<g
   id="g24"
   transform="translate(-97.262348,-62.776953)">
</g>
<g
   id="g26"
   transform="translate(-97.262348,-62.776953)">
</g>
<g
   id="g28"
   transform="translate(-97.262348,-62.776953)">
</g>
<g
   id="g30"
   transform="translate(-97.262348,-62.776953)">
</g>
<g
   id="g32"
   transform="translate(-97.262348,-62.776953)">
</g>
<g
   id="g34"
   transform="translate(-97.262348,-62.776953)">
</g>
<path
   d="M 28.183594 3.5214844 C 14.583594 3.5214844 3.5585938 14.548484 3.5585938 28.146484 C 3.5585938 41.746485 14.583594 52.769531 28.183594 52.769531 C 41.783594 52.769531 52.806641 41.746485 52.806641 28.146484 C 52.806641 14.548484 41.782594 3.5214844 28.183594 3.5214844 z M 42.074219 12.630859 C 42.129522 12.627563 42.185114 12.627746 42.240234 12.630859 C 42.560335 12.649904 42.873755 12.78086 43.119141 13.021484 C 43.144595 13.046389 43.168516 13.071103 43.191406 13.097656 C 43.394674 13.329857 43.506285 13.611971 43.527344 13.900391 C 43.532471 13.972908 43.533753 14.047661 43.527344 14.121094 C 43.522949 14.173467 43.514527 14.22552 43.503906 14.277344 L 38.115234 42.546875 C 38.028617 43.001022 37.720013 43.381513 37.292969 43.558594 C 37.123579 43.628913 36.945574 43.664062 36.767578 43.664062 C 36.496555 43.664062 36.227013 43.584305 35.996094 43.427734 L 27.271484 37.509766 L 22.591797 40.876953 C 22.224817 41.140834 21.752301 41.207046 21.326172 41.054688 C 20.900592 40.901962 20.578259 40.548444 20.462891 40.111328 L 18.113281 31.207031 L 9.7167969 27.998047 C 9.1883018 27.795878 8.83783 27.290462 8.8339844 26.724609 C 8.8301388 26.158757 9.1752405 25.648764 9.7011719 25.439453 L 41.621094 12.736328 C 41.765945 12.674799 41.919662 12.640382 42.074219 12.630859 z M 36.162109 17.865234 L 13.986328 26.689453 L 19.751953 28.892578 C 20.164897 29.050431 20.47704 29.398761 20.589844 29.826172 L 21.320312 32.595703 C 21.353824 32.276152 21.499061 31.976524 21.734375 31.75 L 36.162109 17.865234 z M 40.001953 17.982422 L 24.859375 32.552734 L 28 34.685547 C 28.012636 34.693421 28.025206 34.700561 28.037109 34.708984 L 35.808594 39.980469 L 40.001953 17.982422 z M 21.568359 33.537109 L 22.609375 37.480469 L 24.851562 35.867188 L 21.916016 33.875 C 21.779588 33.782706 21.661936 33.668043 21.568359 33.537109 z "
   id="path857-8" /><g
   id="g4"
   transform="matrix(0.18312374,0,0,0.18312374,-11.721883,-32.595632)"
   style="fill:#ffffff;fill-opacity:1">
	
</g></svg>